#tb 0: 1/25
#media_type 0: video
#codec_id 0: rawvideo
#dimensions 0: 352x288
#sar 0: 0/1
0,          0,          0,        1,   152064, 0xabf9ae05
0,          1,          1,        1,   152064, 0x20418b16
0,          2,          2,        1,   152064, 0x20f72775
0,          3,          3,        1,   152064, 0x57c07111
0,          4,          4,        1,   152064, 0x1b49267f
0,          5,          5,        1,   152064, 0x024cd238
0,          6,          6,        1,   152064, 0x044d1ae0
0,          7,          7,        1,   152064, 0xbfec1b59
0,          8,          8,        1,   152064, 0x1a91f935
0,          9,          9,        1,   152064, 0x9ee184dc
0,         10,         10,        1,   152064, 0x65047dbe
0,         11,         11,        1,   152064, 0xd1632fb5
0,         12,         12,        1,   152064, 0x56f64c3e
0,         13,         13,        1,   152064, 0xe6122f37
0,         14,         14,        1,   152064, 0x0575e670
0,         15,         15,        1,   152064, 0x3d457728
0,         16,         16,        1,   152064, 0x6b508105
0,         17,         17,        1,   152064, 0xcaaf5ea7
0,         18,         18,        1,   152064, 0x9f4e4501
0,         19,         19,        1,   152064, 0x1c661a73
0,         20,         20,        1,   152064, 0x2fd9d1c8
0,         21,         21,        1,   152064, 0x4ac99ab1
0,         22,         22,        1,   152064, 0xf2d36809
0,         23,         23,        1,   152064, 0xa8e32ffb
0,         24,         24,        1,   152064, 0xd4da2fd2
0,         25,         25,        1,   152064, 0xac3adde0
0,         26,         26,        1,   152064, 0xf014ed0f
0,         27,         27,        1,   152064, 0xca2e7d28
0,         28,         28,        1,   152064, 0x3a875e51
0,         29,         29,        1,   152064, 0xc03e4bda
0,         30,         30,        1,   152064, 0x4fdfb595
0,         31,         31,        1,   152064, 0x9243f098
0,         32,         32,        1,   152064, 0x9361bae6
0,         33,         33,        1,   152064, 0x7a1dadee
0,         34,         34,        1,   152064, 0x72a59e15
0,         35,         35,        1,   152064, 0xb5b47170
0,         36,         36,        1,   152064, 0x5eb16651
0,         37,         37,        1,   152064, 0xe7894af7
0,         38,         38,        1,   152064, 0x2683bb0b
0,         39,         39,        1,   152064, 0x90b4c8c5
0,         40,         40,        1,   152064, 0xf800c5b5
0,         41,         41,        1,   152064, 0xc2f5a895
0,         42,         42,        1,   152064, 0x213c65d4
0,         43,         43,        1,   152064, 0x01c65a19
0,         44,         44,        1,   152064, 0xd9f1b04b
0,         45,         45,        1,   152064, 0xa8d1b139
0,         46,         46,        1,   152064, 0x2d0cb0cd
0,         47,         47,        1,   152064, 0x5b0783fe
0,         48,         48,        1,   152064, 0x29e628ec
0,         49,         49,        1,   152064, 0x1b8527e5
0,         50,         50,        1,   152064, 0x4b46d179
0,         51,         51,        1,   152064, 0x6184c708
0,         52,         52,        1,   152064, 0x697bb8e2
0,         53,         53,        1,   152064, 0x5fd3a772
0,         54,         54,        1,   152064, 0x91456c86
0,         55,         55,        1,   152064, 0x376c4dae
0,         56,         56,        1,   152064, 0x00ba2b3f
0,         57,         57,        1,   152064, 0xf6f0f553
0,         58,         58,        1,   152064, 0xc0020855
0,         59,         59,        1,   152064, 0xec3d13d2
0,         60,         60,        1,   152064, 0xb7d7f1dc
0,         61,         61,        1,   152064, 0xf9dae37b
0,         62,         62,        1,   152064, 0x50d9cc93
0,         63,         63,        1,   152064, 0xba1eb592
0,         64,         64,        1,   152064, 0x67616557
0,         65,         65,        1,   152064, 0x09804760
0,         66,         66,        1,   152064, 0xc2ffba00
0,         67,         67,        1,   152064, 0xb71fcf46
0,         68,         68,        1,   152064, 0x6cd975af
0,         69,         69,        1,   152064, 0x19189167
0,         70,         70,        1,   152064, 0xbca8fe71
0,         71,         71,        1,   152064, 0xb0b3f607
0,         72,         72,        1,   152064, 0x7614d73a
0,         73,         73,        1,   152064, 0x7de9d87d
0,         74,         74,        1,   152064, 0x81f58cf2
0,         75,         75,        1,   152064, 0xb8b036cc
0,         76,         76,        1,   152064, 0x26d1e2e4
0,         77,         77,        1,   152064, 0xb41a1e6c
0,         78,         78,        1,   152064, 0x4f9be4a9
0,         79,         79,        1,   152064, 0xe95ad5d3
0,         80,         80,        1,   152064, 0xdffc9335
0,         81,         81,        1,   152064, 0x01d658c0
0,         82,         82,        1,   152064, 0x631b4b75
0,         83,         83,        1,   152064, 0x80ae282f
0,         84,         84,        1,   152064, 0xb34bf688
0,         85,         85,        1,   152064, 0xd0cc7d65
0,         86,         86,        1,   152064, 0x86aa4590
0,         87,         87,        1,   152064, 0xcb515a57
0,         88,         88,        1,   152064, 0x68650834
0,         89,         89,        1,   152064, 0x444ee2a4
